<?xml version="1.0" encoding="UTF-8"?>
<svg width="83.701mm" height="83.701mm" version="1.1" viewBox="0 0 83.701 83.701" xml:space="preserve" xmlns="http://www.w3.org/2000/svg"><defs><clipPath id="clipPath61-0"><path transform="translate(-43.312 -55.293)" d="m0 72h144v-72h-144z"/></clipPath></defs><g transform="translate(-31.698 -88.962)"><g transform="matrix(1.0545 0 0 1.0545 .32192 -65.31)"><g transform="matrix(1.4883 0 0 1.4883 13.879 130.42)" fill="#7ac143"><path transform="matrix(1.3333 0 0 -1.3333 57.749 22.276)" d="m0 0-8.071-8.295-3.239-1.343-2.347 2.347 1.343 3.239 8.295 8.071c0.392 0.381 1.018 0.377 1.405-0.01l2.604-2.604c0.387-0.387 0.391-1.013 0.01-1.405m3.688-14.293h-11.76l-3.24 1.34v3.32l3.24 1.34h11.76c0.552 0 1-0.448 1-1v-4c0-0.552-0.448-1-1-1m-7.707-12.312-8.295 8.071-1.343 3.239 2.347 2.347 3.239-1.343 8.071-8.295c0.381-0.392 0.377-1.018-0.01-1.405l-2.604-2.604c-0.387-0.387-1.013-0.391-1.405-0.01m-14.293-3.688v11.76l1.34 3.24h3.32l1.34-3.24v-11.76c0-0.552-0.448-1-1-1h-4c-0.552 0-1 0.448-1 1m-12.532 7.7109 8.291 8.291 3.238 1.343 2.348-2.347-1.343-3.239-8.319-8.094c-0.382-0.372-0.99-0.379-1.38-0.015l-2.81 2.623c-0.414 0.386-0.425 1.038-0.025 1.438m-3.4683 14.289h11.76l3.24-1.34v-3.32l-3.24-1.34h-11.76c-0.552 0-1 0.448-1 1v4c0 0.552 0.448 1 1 1m7.707 12.312 8.295-8.071 1.343-3.239-2.347-2.347-3.239 1.343-8.071 8.295c-0.381 0.392-0.377 1.018 0.01 1.405l2.604 2.604c0.387 0.387 1.013 0.391 1.405 0.01m14.293 3.688v-11.76l-1.34-3.24h-3.32l-1.34 3.24v11.76c0 0.552 0.448 1 1 1h4c0.552 0 1-0.448 1-1" clip-path="url(#clipPath61-0)" fill="#7ac143"/></g></g></g></svg>
