<?xml version="1.0" encoding="UTF-8"?>
<svg width="158.75mm" height="83.701mm" version="1.1" viewBox="0 0 158.75 83.701" xml:space="preserve" xmlns="http://www.w3.org/2000/svg"><defs><clipPath id="clipPath61-0"><path transform="translate(-43.312 -55.293)" d="m0 72h144v-72h-144z"/></clipPath></defs><g transform="translate(-31.698 -88.962)"><g transform="matrix(1.0545 0 0 1.0545 .32192 -65.31)"><g transform="matrix(1.4883 0 0 1.4883 13.879 130.42)" fill="#7ac143"><path transform="matrix(1.3333 0 0 -1.3333 57.749 22.276)" d="m0 0-8.071-8.295-3.239-1.343-2.347 2.347 1.343 3.239 8.295 8.071c0.392 0.381 1.018 0.377 1.405-0.01l2.604-2.604c0.387-0.387 0.391-1.013 0.01-1.405m3.688-14.293h-11.76l-3.24 1.34v3.32l3.24 1.34h11.76c0.552 0 1-0.448 1-1v-4c0-0.552-0.448-1-1-1m-7.707-12.312-8.295 8.071-1.343 3.239 2.347 2.347 3.239-1.343 8.071-8.295c0.381-0.392 0.377-1.018-0.01-1.405l-2.604-2.604c-0.387-0.387-1.013-0.391-1.405-0.01m-14.293-3.688v11.76l1.34 3.24h3.32l1.34-3.24v-11.76c0-0.552-0.448-1-1-1h-4c-0.552 0-1 0.448-1 1m-12.532 7.7109 8.291 8.291 3.238 1.343 2.348-2.347-1.343-3.239-8.319-8.094c-0.382-0.372-0.99-0.379-1.38-0.015l-2.81 2.623c-0.414 0.386-0.425 1.038-0.025 1.438m-3.4683 14.289h11.76l3.24-1.34v-3.32l-3.24-1.34h-11.76c-0.552 0-1 0.448-1 1v4c0 0.552 0.448 1 1 1m7.707 12.312 8.295-8.071 1.343-3.239-2.347-2.347-3.239 1.343-8.071 8.295c-0.381 0.392-0.377 1.018 0.01 1.405l2.604 2.604c0.387 0.387 1.013 0.391 1.405 0.01m14.293 3.688v-11.76l-1.34-3.24h-3.32l-1.34 3.24v11.76c0 0.552 0.448 1 1 1h4c0.552 0 1-0.448 1-1" clip-path="url(#clipPath61-0)" fill="#7ac143"/></g><g fill-rule="evenodd" stroke-dasharray="3.175" stroke-linecap="round" stroke-linejoin="round" stroke-width="1.0583"><path d="m123.08 152.82q-1.3406-0.38876-1.984-1.0054t-0.64347-1.8902q0-1.3272 0.73731-2.0242 0.75072-0.69709 2.1583-0.69709 2.842 0 3.0431 2.6141h-1.2601q-0.13406-1.488-1.7561-1.488-1.6757 0-1.6757 1.555 0 0.76412 0.40217 1.1529 0.41558 0.38876 1.421 0.68368 1.4612 0.41558 2.1985 1.1127 0.75072 0.68368 0.75072 1.984 0 1.5014-0.79093 2.2119t-2.3728 0.7105q-1.488 0-2.2656-0.73731-0.76412-0.73731-0.77752-1.9572h1.2467q0.067 1.555 1.85 1.555 0.9652 0 1.3942-0.38876 0.44239-0.40217 0.44239-1.3808 0-0.80433-0.4692-1.2333-0.45579-0.42898-1.6489-0.77753zm6.1264-2.0645v3.4318q0 1.2601 0.40217 1.8366 0.41558 0.56304 1.555 0.56304 1.1529 0 1.555-0.56304 0.40217-0.57644 0.40217-1.8366v-3.4318q0-1.2601-0.41557-1.8232-0.40217-0.57644-1.5416-0.57644-1.1395 0-1.555 0.57644-0.40217 0.56303-0.40217 1.8232zm-0.57644-2.6811q0.76412-0.87136 2.5337-0.87136t2.5202 0.87136q0.76412 0.87136 0.76412 2.7079v3.3782q0 1.8366-0.76412 2.7079-0.75071 0.87137-2.5202 0.87137t-2.5337-0.87137q-0.75071-0.87136-0.75071-2.7079v-3.3782q0-1.8366 0.75071-2.7079zm12.722-0.7105h1.2735v6.6492q0 1.8902-0.7105 2.8152-0.71049 0.91158-2.4934 0.91158-1.7964 0-2.5068-0.91158-0.69709-0.91158-0.69709-2.8152v-6.6492h1.2869v6.7296q0 1.3004 0.38876 1.8902 0.40217 0.58985 1.5282 0.58985 1.1395 0 1.5282-0.58985 0.40217-0.58984 0.40217-1.8902zm6.3945 10.215h-1.2735v-9.0488h-2.4666v-1.1663h6.2202v1.1663h-2.48zm10.282-10.215v10.215h-1.2601v-4.6652h-3.7938v4.6652h-1.2735v-10.215h1.2735v4.3836h3.7938v-4.3836z"/><path d="m121.99 165.25v3.2844h3.4989v1.1261h-3.4989v3.5525h4.1289v1.1261h-5.4025v-10.215h5.2684v1.1261zm11.22 9.089-0.79093-2.8688h-3.271l-0.77752 2.8688h-1.3138l3.0028-10.215h1.5416l3.0028 10.215zm-2.413-8.8611-1.3272 4.826h2.6409zm7.4535 4.1021q-1.3406-0.38876-1.984-1.0054t-0.64347-1.8902q0-1.3272 0.73731-2.0242 0.75071-0.69709 2.1583-0.69709 2.842 0 3.0431 2.6141h-1.2601q-0.13406-1.488-1.7561-1.488-1.6757 0-1.6757 1.555 0 0.76411 0.40217 1.1529 0.41558 0.38876 1.421 0.68368 1.4612 0.41558 2.1985 1.1127 0.75072 0.68368 0.75072 1.984 0 1.5014-0.79093 2.2119t-2.3728 0.7105q-1.488 0-2.2656-0.73731-0.76412-0.73731-0.77753-1.9572h1.2467q0.067 1.555 1.85 1.555 0.9652 0 1.3942-0.38876 0.44239-0.40217 0.44239-1.3808 0-0.80433-0.4692-1.2333-0.45579-0.42898-1.6489-0.77753zm7.8691 4.759h-1.2735v-9.0488h-2.4666v-1.1663h6.2202v1.1663h-2.48zm5.2416-9.089v3.2844h3.4989v1.1261h-3.4989v3.5525h4.1289v1.1261h-5.4024v-10.215h5.2684v1.1261zm5.8046 9.089v-10.215h2.6275q1.5416 0 2.3058 0.64347 0.77752 0.63006 0.77752 2.1449v0.38876q0 1.059-0.34855 1.6489-0.33514 0.58985-1.059 0.84455l1.7293 4.5445h-1.421l-1.5282-4.2898q-0.12065 0.0134-0.57644 0.0134h-1.2333v4.2764zm4.4507-7.1184v-0.21449q0-1.0322-0.42898-1.3942-0.42897-0.36195-1.3942-0.36195h-1.354v3.7134h1.4612q0.99201 0 1.354-0.37535 0.36195-0.37536 0.36195-1.3674zm2.9224-3.0967h1.354l3.6597 7.8557v-7.8557h1.2601v10.215h-1.3272l-3.6865-7.7484v7.7484h-1.2601z"/><path d="m121.99 182.01v3.2844h3.4989v1.1261h-3.4989v3.5525h4.1289v1.1261h-5.4025v-10.215h5.2684v1.1261zm10.845-1.1261h1.2735v6.6492q0 1.8902-0.71049 2.8152-0.7105 0.91158-2.4934 0.91158-1.7964 0-2.5068-0.91158-0.69709-0.91158-0.69709-2.8152v-6.6492h1.2869v6.7296q0 1.3004 0.38877 1.8902 0.40217 0.58985 1.5282 0.58985 1.1395 0 1.5282-0.58985 0.40217-0.58984 0.40217-1.8902zm3.1771 10.215v-10.215h2.6275q1.5416 0 2.3058 0.64347 0.77753 0.63006 0.77753 2.1449v0.38876q0 1.059-0.34855 1.6489-0.33514 0.58984-1.059 0.84455l1.7293 4.5445h-1.421l-1.5282-4.2898q-0.12065 0.0134-0.57644 0.0134h-1.2333v4.2764zm4.4507-7.1184v-0.21449q0-1.0322-0.42898-1.3942-0.42898-0.36195-1.3942-0.36195h-1.354v3.7134h1.4612q0.99202 0 1.354-0.37535 0.36195-0.37536 0.36195-1.3674zm4.1289 0.29492v3.4318q0 1.2601 0.40217 1.8366 0.41557 0.56304 1.555 0.56304 1.1529 0 1.555-0.56304 0.40217-0.57644 0.40217-1.8366v-3.4318q0-1.2601-0.41558-1.8232-0.40216-0.57644-1.5416-0.57644t-1.555 0.57644q-0.40217 0.56303-0.40217 1.8232zm-0.57644-2.6811q0.76412-0.87136 2.5337-0.87136t2.5202 0.87136q0.76412 0.87136 0.76412 2.7079v3.3782q0 1.8366-0.76412 2.7079-0.75071 0.87137-2.5202 0.87137t-2.5337-0.87137q-0.75071-0.87136-0.75071-2.7079v-3.3782q0-1.8366 0.75071-2.7079zm10.456 5.3756h-1.5014v4.1289h-1.2735v-10.215h2.6945q1.5416 0 2.3058 0.65688 0.76412 0.64347 0.76412 2.2253v0.34854q0 1.555-0.7105 2.2119-0.69709 0.64346-2.279 0.64346zm-1.5014-4.9467v3.8072h1.5148q0.99201 0 1.354-0.36195 0.36195-0.37536 0.36195-1.354v-0.33514q0-1.0322-0.42898-1.3942t-1.3942-0.36195zm7.1988-0.0134v3.2844h3.4989v1.1261h-3.4989v3.5525h4.1289v1.1261h-5.4024v-10.215h5.2684v1.1261zm11.22 9.089-0.79093-2.8688h-3.271l-0.77753 2.8688h-1.3137l3.0028-10.215h1.5416l3.0029 10.215zm-2.413-8.8611-1.3272 4.826h2.6409zm5.0539-1.354h1.354l3.6597 7.8557v-7.8557h1.2601v10.215h-1.3272l-3.6865-7.7484v7.7484h-1.2601z"/><path d="m123.46 203.72h-1.5014v4.1289h-1.2735v-10.215h2.6945q1.5416 0 2.3058 0.65688 0.76412 0.64347 0.76412 2.2253v0.34854q0 1.555-0.7105 2.2119-0.69709 0.64346-2.279 0.64346zm-1.5014-4.9467v3.8072h1.5148q0.99202 0 1.354-0.36195 0.36195-0.37536 0.36195-1.354v-0.33514q0-1.0322-0.42898-1.3942t-1.3942-0.36195zm10.993 7.9227v1.1529h-5.0673v-10.215h1.2735v9.0622zm6.9843 1.1529-0.79094-2.8688h-3.271l-0.77753 2.8688h-1.3138l3.0029-10.215h1.5416l3.0029 10.215zm-2.413-8.8611-1.3272 4.826h2.6409zm7.1452 8.8611h-1.2735v-9.0488h-2.4666v-1.1663h6.2202v1.1663h-2.48zm9.3169-10.215v1.1261h-4.0753v3.3648h3.4854v1.1261h-3.4854v4.5981h-1.2735v-10.215zm2.346 3.3916v3.4318q0 1.2601 0.40217 1.8366 0.41557 0.56304 1.555 0.56304 1.1529 0 1.555-0.56304 0.40217-0.57644 0.40217-1.8366v-3.4318q0-1.2601-0.41558-1.8232-0.40217-0.57644-1.5416-0.57644-1.1395 0-1.555 0.57644-0.40217 0.56303-0.40217 1.8232zm-0.57644-2.6811q0.76412-0.87137 2.5337-0.87137t2.5202 0.87137q0.76412 0.87136 0.76412 2.7079v3.3782q0 1.8366-0.76412 2.7079-0.75071 0.87137-2.5202 0.87137t-2.5337-0.87137q-0.75071-0.87136-0.75071-2.7079v-3.3782q0-1.8366 0.75071-2.7079zm7.6814 9.5046v-10.215h2.6275q1.5416 0 2.3058 0.64347 0.77753 0.63006 0.77753 2.1449v0.38876q0 1.059-0.34855 1.6489-0.33514 0.58984-1.059 0.84455l1.7293 4.5445h-1.421l-1.5282-4.2898q-0.12065 0.0134-0.57644 0.0134h-1.2333v4.2764zm4.4507-7.1184v-0.21449q0-1.0322-0.42898-1.3942t-1.3942-0.36195h-1.354v3.7134h1.4612q0.99202 0 1.354-0.37535 0.36195-0.37536 0.36195-1.3674zm2.9358-3.0967h1.5148l2.2924 5.5633 2.3192-5.5633h1.421v10.215h-1.2333v-8.0836l-2.0242 4.826h-1.0456l-2.0108-4.7322v7.9897h-1.2333z"/><path d="m120.58 214.39h1.917l3.2576 6.9173v-6.9173h1.7293v10.215h-1.8768l-3.2844-6.7698v6.7698h-1.7427zm10.55 0v10.215h-1.8634v-10.215zm6.609 6.7966h1.9706v0.24131q-0.0402 3.338-3.4184 3.338-1.8098 0-2.6409-0.91158-0.83115-0.92499-0.83115-2.7482v-3.1905q0-1.8366 0.83115-2.7616 0.83114-0.92499 2.6409-0.92499 3.405 0 3.405 3.338v0.14746h-1.984v-0.18767q0-1.555-1.421-1.555-0.87137 0-1.2065 0.4826-0.32173 0.4826-0.32173 1.5282v3.0431q0 1.0456 0.32173 1.5282 0.32174 0.46919 1.2065 0.46919 0.73731 0 1.0724-0.36195 0.34854-0.37536 0.37535-1.2065zm5.0405-3.3916v3.405q0 0.97861 0.36195 1.4344t1.2333 0.45579q0.88477 0 1.2467-0.44238 0.36195-0.4558 0.36195-1.4478v-3.405q0-0.97861-0.36195-1.4344t-1.2467-0.45579q-0.87136 0-1.2333 0.45579t-0.36195 1.4344zm-1.0993-2.6543q0.85796-0.91158 2.6945-0.91158 1.8366 0 2.6945 0.91158 0.85796 0.89817 0.85796 2.7213v3.271q0 1.8232-0.85796 2.7347-0.85796 0.89818-2.6945 0.89818-1.8366 0-2.6945-0.89818-0.84455-0.91158-0.84455-2.7347v-3.271q0-1.8232 0.84455-2.7213zm10.644 0.73731q-0.71049 0-1.0188 0.28152-0.30833 0.26811-0.30833 0.85795 0 0.60326 0.34855 0.91158 0.34854 0.30833 1.2333 0.54963 0.7105 0.18768 1.2065 0.40217 0.50941 0.20109 0.99201 0.56304 0.49601 0.36195 0.75071 0.93839 0.25471 0.56303 0.25471 1.3272 0 1.5282-0.83115 2.2924t-2.6409 0.76412q-1.7025 0-2.5202-0.81774-0.81775-0.81774-0.81775-2.1181h1.8232q0.067 1.2869 1.5953 1.2869 0.81774 0 1.1529-0.30833 0.34855-0.32173 0.34855-1.0724 0-0.61665-0.42898-0.95179-0.41557-0.33514-1.5282-0.64347-0.64347-0.17427-1.0858-0.36195-0.42898-0.20109-0.85796-0.53623t-0.64347-0.87136q-0.20108-0.54963-0.20108-1.2869 0-1.3942 0.80433-2.1181 0.80434-0.73731 2.3326-0.73731 3.1235 0 3.3514 2.8688h-1.85q-0.13406-1.2199-1.4612-1.2199zm6.6224-1.488v10.215h-1.8634v-10.215zm7.2792 10.215-0.64347-2.5337h-2.9894l-0.65687 2.5337h-1.8902l2.976-10.215h2.2253l2.976 10.215zm-2.1181-8.3785-1.0724 4.1289h2.1181z" fill="#7ac143"/></g></g></g></svg>
