<?xml version="1.0" encoding="UTF-8"?>
<svg data-name="Layer 2" version="1.1" viewBox="0 0 500 500" xmlns="http://www.w3.org/2000/svg">
    <defs>
        <style>.cls-1 {
            fill: #7ac143;
            }

            .cls-2 {
            fill: #f47b20;
            }

            .cls-3 {
            fill: #ec008c;
            }

            .cls-4 {
            fill: #00aeef;
            }

            .cls-5 {
            fill: #2e3192;
            }
        </style>
    </defs>
    <polygon class="cls-4" points="196.77 226.63 171.28 252.12 105.62 241.46"/>
    <polygon class="cls-1"
             points="274.61 301.99 278.92 277.33 303.23 273.37 328.57 248.03 262.62 237.33 237.22 262.83 247.91 328.69"/>
    <polygon class="cls-3"
             points="225.23 198.16 220.92 222.83 196.61 226.78 171.28 252.12 237.22 262.83 262.62 237.33 251.93 171.47"/>
    <polyline class="cls-4" points="225.23 198.16 251.93 171.47 251.99 171.87 241.32 106.13 225.13 198.73"/>
    <polygon class="cls-2" points="303.23 273.37 328.72 247.88 394.38 258.54"/>
    <polyline class="cls-2" points="274.77 301.84 248.07 328.53 248.01 328.13 258.68 393.87 274.87 301.27"/>
    <path class="cls-5"
          d="m285 215-35-215-35 215-215 35 215 35 35 215 35-215 215-35-215-35zm-5.9 62.2-20.4 116.7-21.3-131.2-131.2-21.3 114.9-18.7 20.4-116.7 21.3 131.2 131.2 21.3-114.9 18.7z"/>
</svg>
